<?xml version="1.0"?>
<!--Icons from directory ""-->
<svg xmlns="http://www.w3.org/2000/svg" width="300" height="428" viewBox="0 0 300 428"><svg xmlns:xlink="http://www.w3.org/1999/xlink" id="emergency-exit" style="enable-background:new 0 0 552.4 552.4" xml:space="preserve" height="300" viewBox="0 0 552.4 552.4" width="300" version="1.1" y="0" x="0px">	<path d="m465.7 26.2c0-9.2-4.9-17.1-11.6-22-1.2-0.6-1.8-1.2-3.1-1.8-3.7-1.8-8-2.4-11.6-2.4h-326.3c-14.7 0-26.9 11.6-26.9 26.9v67.9h136.5l-14.1-14.1c-3.7-3.7-3.1-9.2 0-12.9l9.2-9.2c1.8-1.8 3.7-2.4 6.1-2.4s4.9 0.6 6.7 2.4l45.3 46c1.8 1.8 2.399 3.7 2.399 6.1s-1.199 4.9-2.399 6.7l-45.3 45.9c-3.7 3.7-9.2 3.7-12.9 0l-9.2-9.2c-3.7-3.7-3.7-9.2 0-12.9l14.7-14.1h-136.4v398.4c0 14.7 11.6 26.9 26.3 26.9h326.2c14.7 0 26.9-11.601 26.9-26.9l-0.5-499.3zm-113.3 144.5c18.399 0 33.7 15.3 33.7 33.7s-15.301 33-33.7 33c-18.4 0-33-14.7-33-33s14-33.7 33-33.7zm-117.4 233.1c-7.3 8.601-12.2 11.601-22 11l-74.1-1.199c-9.2-0.601-16.5-9.801-15.9-17.7 0.6-11 8-17.101 18.4-17.101l67.9-0.6 15.9-21.5 28.8 23.3-19 23.8zm177.4-55.7l-60.6-13.4c-4.3-1.2-7.3-4.3-9.199-8l-14.1-31.2c-1.2 1.2-32.399 52.601-32.399 52.601l35.5 26.899c11 9.2 12.199 17.7 8 29.4l-36.7 84.5c-3.101 8-12.2 13.5-21.4 10.399-9.2-3.1-15.3-13.5-11-22.6l31.8-76.5-47.7-36.1c-12.9-8-17.7-23.301-8.6-38.601l42.8-69.8-31.2-11-56.3 28.2c-7.3 4.3-16.5 0.6-20.2-6.1-3.1-6.1-0.6-14.7 5.5-18.4l58.8-30.6c3.1-1.8 6.1-3.1 9.2-3.1s6.1 0.6 8.6 1.2l49.6 15.9c1.801 0.6 3.101 1.2 4.301 2.4l26.9 20.2c3.7 2.4 4.9 6.7 6.101 9.8l13.5 42.2 54.5 14.1c7.3 1.8 11 8.601 11 15.3-0.8 6.2-9.3 14.2-16.7 12.3z"/></svg><svg xmlns:xlink="http://www.w3.org/1999/xlink" id="information-signal" style="enable-background:new 0 0 395 395" xml:space="preserve" viewBox="0 0 395 395" version="1.1" y="300" x="0px" width="32" height="32">	<path d="m232.21 288.82h-5.393l0.048-121.62c-0.165-8.301-6.934-14.983-15.276-14.983h-48.795c-8.446 0-15.292 6.847-15.292 15.29 0 8.446 6.846 15.292 15.292 15.292h8.376v106.02h-5.393c-8.446 0-15.292 6.846-15.292 15.29 0 8.447 6.846 15.292 15.292 15.292h66.433c8.446 0 15.292-6.845 15.292-15.292-0.01-8.44-6.86-15.29-15.3-15.29z"/>	<circle cy="107.71" cx="199.03" r="32.112"/>	<path d="m313 0h-231c-45.215 0-82 36.784-82 81.998v230.99c0 45.22 36.785 82.01 81.999 82.01h231c45.22 0 82-36.79 82-82.01v-230.99c0-45.216-36.78-82-82-82zm67 312.99c0 36.95-30.06 67.01-67 67.01h-231c-36.944 0-67-30.06-67-67.01v-230.99c0-36.945 30.056-67 66.999-67h231c36.94 0 67 30.055 67 66.998v230.99z"/></svg><svg xmlns:xlink="http://www.w3.org/1999/xlink" id="lift-sign" style="enable-background:new 0 0 395 395" xml:space="preserve" viewBox="0 0 395 395" version="1.1" y="332" x="0px" width="32" height="32">		<path d="m162.6 215.21c10.282 0 18.619-8.329 18.619-18.61 0-10.28-8.337-18.617-18.619-18.617-10.278 0-18.62 8.337-18.62 18.617s8.34 18.61 18.62 18.61z"/>		<path d="m162.6 217.82c-22.292 0-28.766 9.367-31.487 45.558-0.245 3.253 2.194 6.088 5.447 6.333 0.151 0.011 0.3 0.017 0.449 0.017 3.061 0 5.65-2.362 5.884-5.464 1.004-13.358 2.317-21.55 4.262-26.59-0.198 0.997-0.306 2.026-0.306 3.082v22.722c0 1.22 0.152 2.4 0.414 3.54v49.899c0 3.806 3.085 6.891 6.891 6.891s6.891-3.085 6.891-6.891v-37.77c0.512 0.05 1.03 0.078 1.555 0.078 0.522 0 1.038-0.028 1.547-0.078v37.767c0 3.806 3.086 6.891 6.891 6.891 3.806 0 6.891-3.085 6.891-6.891v-49.87c0.267-1.148 0.421-2.34 0.421-3.569v-22.722c0-1.054-0.108-2.082-0.305-3.077 1.943 5.04 3.255 13.23 4.258 26.584 0.245 3.253 3.085 5.69 6.332 5.448 3.253-0.245 5.692-3.08 5.448-6.333-2.7-36.19-9.17-45.56-31.46-45.56z"/>		<path d="m232.4 215.21c10.28 0 18.622-8.329 18.622-18.61 0-10.28-8.342-18.617-18.622-18.617s-18.617 8.337-18.617 18.617c0.01 10.28 8.34 18.61 18.62 18.61z"/>		<path d="m232.4 217.82c-22.291 0-28.765 9.367-31.484 45.558-0.244 3.253 2.194 6.088 5.448 6.333 0.15 0.011 0.3 0.017 0.449 0.017 3.061 0 5.65-2.362 5.884-5.465 0.95-12.643 2.176-20.655 3.953-25.752v18.059l-5.862 26.342c-0.114 0.513 0.011 1.049 0.339 1.459 0.329 0.41 0.825 0.648 1.351 0.648h4.589v31.898c0 3.806 3.085 6.891 6.891 6.891s6.891-3.085 6.891-6.891v-31.898h3.104v31.898c0 3.806 3.085 6.891 6.891 6.891s6.891-3.085 6.891-6.891v-31.898h4.594 0.02c0.956 0 1.731-0.775 1.731-1.731 0-0.222-0.041-0.434-0.117-0.628l-5.812-26.111v-18.049c1.779 5.096 3.006 13.111 3.956 25.764 0.244 3.253 3.083 5.693 6.333 5.448 3.253-0.244 5.692-3.08 5.448-6.333-2.71-36.19-9.18-45.56-31.48-45.56z"/>		<path d="m277.1 135.34h-159.2c-17.925 0-32.508 14.583-32.508 32.508v159.2c0 17.925 14.583 32.509 32.508 32.509h159.2c17.925 0 32.509-14.584 32.509-32.509v-159.2c0-17.92-14.58-32.51-32.51-32.51zm12.51 191.72c0 6.897-5.611 12.509-12.509 12.509h-159.2c-6.897 0-12.508-5.611-12.508-12.509v-159.21c0-6.896 5.611-12.508 12.508-12.508h159.2c6.897 0 12.509 5.611 12.509 12.508v159.21z"/>		<path d="m149.67 72.483c0.976-0.977 1.953-1.953 2.929-2.929v36.549c0 1.647-0.051 3.267 0.445 4.87 1.341 4.338 5.583 7.275 10.113 7.026 4.511-0.248 8.398-3.633 9.258-8.068 0.267-1.376 0.184-2.821 0.184-4.217v-36.16c2.332 2.331 4.477 4.891 7.864 5.628 5.099 1.109 10.35-2.028 11.763-7.057 1.014-3.606-0.121-7.351-2.738-9.969l-19.815-19.815c-3.076-3.075-7.951-3.794-11.789-1.747-1.587 0.85-2.783 2.174-4.038 3.429l-17.556 17.556c-0.871 0.87-1.715 1.733-2.342 2.813-1.588 2.731-1.777 6.146-0.508 9.04 2.8 6.346 11.36 7.946 16.25 3.055z"/>		<path d="m225.32 115.11c3.076 3.076 7.951 3.794 11.789 1.748 1.587-0.851 2.783-2.174 4.038-3.429l17.556-17.556c0.871-0.871 1.715-1.733 2.342-2.813 1.588-2.732 1.777-6.147 0.508-9.041-2.782-6.343-11.34-7.941-16.231-3.051-0.976 0.975-1.953 1.952-2.929 2.929v-36.549c0-1.648 0.051-3.267-0.445-4.87-1.341-4.338-5.583-7.276-10.113-7.027-4.511 0.248-8.398 3.633-9.258 8.069-0.267 1.375-0.184 2.821-0.184 4.217v36.16c-2.332-2.332-4.477-4.891-7.864-5.628-5.099-1.11-10.35 2.028-11.763 7.056-1.014 3.606 0.121 7.352 2.738 9.969l19.79 19.815z"/>	<path d="m313 0h-231c-45.215 0-82 36.784-82 81.998v230.99c0 45.22 36.785 82.01 81.999 82.01h231c45.22 0 82-36.79 82-82.01v-230.99c0-45.216-36.78-82-82-82zm67 312.99c0 36.95-30.06 67.01-67 67.01h-231c-36.944 0-67-30.06-67-67.01v-230.99c0-36.945 30.056-67 66.999-67h231c36.94 0 67 30.055 67 66.998v230.99z"/></svg><svg xmlns:xlink="http://www.w3.org/1999/xlink" id="restaurant-signal" style="enable-background:new 0 0 395 395" xml:space="preserve" viewBox="0 0 395 395" version="1.1" y="364" x="0px" width="32" height="32">	<path d="m100.88 291.64c-2.149 2.15-2.149 5.635 0 7.787l8.861 8.861c1.075 1.074 2.484 1.612 3.894 1.612 1.408 0 2.814-0.537 3.89-1.61l68.967-68.861-16.699-16.701-68.91 68.91z"/>	<path d="m325.64 116.73c-1.032-1.037-2.434-1.619-3.895-1.619h-0.004c-1.46 0-2.86 0.58-3.892 1.613l-40.208 40.211c-1.037 1.036-2.42 1.606-3.895 1.606-1.474 0.001-2.856-0.57-3.894-1.605-1.038-1.038-1.606-2.42-1.606-3.894s0.568-2.857 1.606-3.894l40.212-40.208c1.032-1.032 1.613-2.435 1.612-3.895 0-1.46-0.581-2.861-1.615-3.894l-1.948-1.946c-2.15-2.146-5.635-2.146-7.783 0.003l-40.208 40.209c-1.037 1.037-2.42 1.606-3.893 1.606-1.474 0-2.856-0.569-3.893-1.606-1.037-1.038-1.606-2.42-1.606-3.894 0-1.473 0.57-2.855 1.606-3.891l40.212-40.21c1.031-1.032 1.611-2.433 1.611-3.893 0-1.461-0.58-2.861-1.611-3.893l-0.249-0.248c-1.898-1.897-4.891-2.15-7.082-0.595l-52.705 37.438c-10.437 7.437-16.804 19.504-17.024 32.266l-0.133 6.674c-0.079 4.531-0.322 18.319-6.553 24.55l-12.296 12.296 16.639 16.796 12.386-12.366c5.433-5.432 15.477-6.365 24.545-6.563l6.696-0.093c12.774-0.254 24.84-6.622 32.285-17.044l37.427-52.688c1.553-2.187 1.304-5.176-0.591-7.075l-0.28-0.29z"/>	<path d="m78.529 86.726c-1.201-1.211-2.894-1.801-4.587-1.589-1.692 0.21-3.191 1.191-4.06 2.659-4.604 7.771-6.33 23.902 31.655 74.063 20.008 26.421 42.047 50.214 42.269 50.449 1.02 1.1 2.443 1.735 3.942 1.76 1.511 0.04 2.944-0.562 3.999-1.626l8.71-8.78 107.94 107.95c1.035 1.033 2.434 1.613 3.895 1.613 1.46 0 2.859-0.58 3.892-1.613l8.76-8.758c2.143-2.144 2.151-5.616 0.018-7.769l-206.44-208.35z"/>	<path d="m313 0h-231c-45.215 0-82 36.784-82 81.998v230.99c0 45.22 36.785 82.01 81.999 82.01h231c45.22 0 82-36.79 82-82.01v-230.99c0-45.216-36.78-82-82-82zm67 312.99c0 36.95-30.06 67.01-67 67.01h-231c-36.944 0-67-30.06-67-67.01v-230.99c0-36.945 30.056-67 66.999-67h231c36.94 0 67 30.055 67 66.998v230.99z"/></svg><svg xmlns:xlink="http://www.w3.org/1999/xlink" id="restroom-sign" style="enable-background:new 0 0 395 395" xml:space="preserve" viewBox="0 0 395 395" version="1.1" y="396" x="0px" width="32" height="32">	<path d="m313 0h-231c-45.215 0-82 36.784-82 81.998v230.99c0 45.22 36.785 82.01 82 82.01h231c45.22 0 82-36.79 82-82.01v-230.99c0-45.216-36.78-82-82-82zm67 312.99c0 36.95-30.06 67.01-67 67.01h-231c-36.944 0-67-30.06-67-67.009v-230.99c0-36.944 30.056-67 67-67h231c36.94 0 67 30.056 67 66.998v230.99z"/>	<path d="m285.27 137.17c19.24 0 34.846-15.59 34.846-34.83 0-19.241-15.605-34.842-34.846-34.842-19.236 0-34.842 15.601-34.842 34.842 0 19.24 15.61 34.83 34.84 34.83z"/>	<path d="m344.2 227.3c-2.772-36.906-7.223-56.038-15.873-68.239-11.135-15.704-28.06-17.02-43.05-17.02-14.989 0-31.914 1.315-43.048 17.02-8.648 12.199-13.099 31.331-15.873 68.238-0.458 6.087 4.107 11.393 10.194 11.851 0.281 0.021 0.561 0.031 0.84 0.031 5.729 0 10.574-4.42 11.011-10.225 1.683-22.39 4.044-37.762 7.399-47.725v46.257c0 2.321 0.277 4.576 0.784 6.743v93.26c0 7.122 5.773 12.896 12.896 12.896 7.122 0 12.896-5.773 12.896-12.896v-70.675c0.955 0.093 1.922 0.144 2.901 0.144 0.982 0 1.953-0.051 2.911-0.145v70.68c0 7.122 5.773 12.896 12.896 12.896 7.122 0 12.895-5.773 12.895-12.896v-93.307c0.501-2.154 0.774-4.395 0.774-6.701v-46.268c3.359 9.963 5.719 25.338 7.401 47.735 0.457 6.088 5.763 10.659 11.851 10.194 6.09-0.45 10.65-5.76 10.2-11.85z"/>	<path d="m109.73 137.17c19.238 0 34.846-15.59 34.846-34.83 0-19.241-15.607-34.842-34.846-34.842-19.238 0-34.846 15.601-34.846 34.842-0.003 19.24 15.604 34.83 34.846 34.83z"/>	<path d="m152.78 159.06c-11.134-15.705-28.059-17.02-43.049-17.02-14.989 0-31.914 1.315-43.049 17.02-8.65 12.2-13.101 31.333-15.874 68.239-0.457 6.088 4.106 11.394 10.194 11.851 6.088 0.47 11.393-4.106 11.851-10.194 1.683-22.401 4.042-37.794 7.401-47.758v33.339l-10.978 49.316c-0.214 0.96 0.021 1.964 0.635 2.732 0.615 0.767 1.545 1.213 2.528 1.213h8.587v59.7c0 7.122 5.773 12.896 12.896 12.896 7.122 0 12.896-5.773 12.896-12.896v-59.698h5.811v59.7c0 7.122 5.773 12.896 12.896 12.896 7.122 0 12.895-5.773 12.895-12.896v-59.698h8.601c0.007 0 0.015 0.001 0.02 0 1.79 0 3.241-1.45 3.241-3.24 0-0.369-0.063-0.724-0.176-1.055l-10.898-48.956v-33.346c3.358 9.964 5.716 25.356 7.399 47.755 0.437 5.806 5.282 10.225 11.011 10.225 0.277 0 0.559-0.01 0.84-0.031 6.088-0.457 10.651-5.763 10.194-11.851-2.77-36.88-7.22-56.02-15.86-68.22z"/>	<path d="m197.5 61.241c-5.669 0-10.264 4.595-10.264 10.264v251.99c0 5.669 4.595 10.264 10.264 10.264s10.264-4.595 10.264-10.264v-252c0-5.664-4.59-10.259-10.26-10.259z"/></svg></svg>
